<svg viewBox="0 0 100 100" fill="none" xmlns="http://www.w3.org/2000/svg">
  <path d="M84.6,50c2.7-3.1,4.4-7.1,4.4-11.5c0-9.6-7.8-17.4-17.4-17.4s-17.4,7.8-17.4,17.4c0,4.4,1.7,8.4,4.4,11.5c-2.4,1.4-4.6,3.2-6.5,5.3c-2.2-4.9-5.9-9-10.5-11.6c2.7-3.1,4.4-7.1,4.4-11.5c0-9.6-7.8-17.4-17.4-17.4c-9.6,0-17.4,7.8-17.4,17.4c0,4.4,1.7,8.4,4.4,11.5c-7.7,4.5-13,12.8-13,22.4v10.2c0,1.4,1.2,2.6,2.6,2.6h40.5v3.7c0,1.5,1.2,2.6,2.6,2.6h46.7c1.4,0,2.6-1.2,2.6-2.6V72.4C97.5,62.8,92.3,54.5,84.6,50z M71.5,26.3c6.7,0,12.1,5.4,12.1,12.1s-5.4,12.1-12.1,12.1s-12.1-5.4-12.1-12.1S64.8,26.3,71.5,26.3z M28.5,20c6.7,0,12.1,5.4,12.1,12.1s-5.4,12.1-12.1,12.1s-12.1-5.4-12.1-12.1S21.8,20,28.5,20z M7.8,73.7v-7.6c0-8.3,5-15.5,12.1-18.8c2.5,1.5,5.5,2.3,8.6,2.3c3.1,0,6.1-0.8,8.6-2.3c5.5,2.5,9.8,7.4,11.4,13.4c-1.8,3.5-2.9,7.5-2.9,11.7v1.3H7.8z M92.2,80H50.8v-7.6c0-8.3,5-15.5,12.1-18.8c2.5,1.5,5.5,2.3,8.6,2.3c3.1,0,6.1-0.8,8.6-2.3c7.1,3.3,12.1,10.5,12.1,18.8V80z"
        strokeWidth="3.5" fill="currentColor"/>
</svg>