<svg viewBox="0 0 24 24" fill="none" xmlns="http://www.w3.org/2000/svg">
  <g transform="translate(1.74, 2.5) scale(0.2489)">
    <path fill="currentColor" d="M80.46,1.73c-1.26-1.17-2.91-1.78-4.6-1.72H25.44c-1.71-.06-3.36,.55-4.62,1.72-1.26,1.17-1.99,2.76-2.06,4.5v7.33H4.19c-1.07-.04-2.11,.34-2.9,1.06-.79,.72-1.25,1.7-1.29,2.78V59.77c.04,1.06,.5,2.04,1.29,2.76,.76,.69,1.73,1.06,2.75,1.06,.05,0,.1,0,.14,0h14.58v7.35c.07,1.72,.8,3.31,2.06,4.48,1.2,1.12,2.75,1.73,4.37,1.73,.08,0,.15,0,.23,0h50.41c1.71,.06,3.36-.55,4.62-1.72,1.26-1.17,1.99-2.76,2.06-4.5V6.21c-.07-1.72-.8-3.31-2.06-4.48ZM13.25,41.99c-.86,.84-2,1.26-3.42,1.26h-3.38v-9.35h3.39c1.42,0,2.55,.42,3.41,1.27s1.29,1.98,1.29,3.42-.43,2.57-1.29,3.41Zm7.11,1.46c-1.35,0-2.5-.45-3.45-1.35-.95-.9-1.42-2.07-1.42-3.52s.47-2.63,1.42-3.53c.95-.9,2.1-1.35,3.45-1.35s2.5,.45,3.44,1.36,1.41,2.08,1.41,3.52-.47,2.62-1.41,3.52-2.09,1.35-3.44,1.35Zm55.5,28.58H25.38c-.74,.07-1.4-.45-1.51-1.11v-7.33s13.85,0,13.85,0c1.07,.04,2.11-.34,2.9-1.06,.79-.72,1.25-1.7,1.29-2.78v-6.65h21.73c1.38,0,2.5-1.12,2.5-2.5s-1.12-2.5-2.5-2.5h-21.73v-6.72h21.73c1.38,0,2.5-1.12,2.5-2.5s-1.12-2.5-2.5-2.5h-21.73v-6.72h21.73c1.38,0,2.5-1.12,2.5-2.5s-1.12-2.5-2.5-2.5h-21.73v-7.26c-.04-1.06-.5-2.04-1.29-2.76-.79-.72-1.83-1.1-2.89-1.06h-13.86V6.3c.1-.69,.7-1.19,1.42-1.19,.05,0,.09,0,.14,0h50.47c.75-.07,1.41,.45,1.51,1.11V70.85c-.1,.73-.77,1.25-1.55,1.19ZM29.12,40.61c.53,.5,1.16,.75,1.9,.75s1.28-.18,1.68-.54,.66-.77,.78-1.21l1.99,.57c-.09,.36-.23,.72-.43,1.07-.2,.35-.47,.7-.8,1.04-.34,.34-.79,.62-1.35,.84-.56,.21-1.18,.32-1.87,.32-1.37,0-2.52-.45-3.46-1.35-.93-.9-1.4-2.07-1.4-3.5s.47-2.6,1.41-3.52,2.08-1.38,3.42-1.38c.67,0,1.27,.1,1.81,.3,.54,.2,.98,.46,1.31,.79,.33,.33,.6,.66,.8,1,.2,.34,.34,.7,.42,1.07l-1.97,.62c-.04-.18-.11-.37-.21-.55-.1-.18-.23-.37-.41-.55-.18-.19-.42-.34-.73-.46-.31-.12-.66-.18-1.04-.18-.7,0-1.32,.25-1.86,.75-.54,.5-.8,1.2-.8,2.12,0,.84,.26,1.52,.79,2.02Z"/>
    <path fill="currentColor" d="M9.75,35.86h-1.21v5.42h1.21c.77,0,1.39-.23,1.88-.69,.49-.46,.73-1.13,.73-2.02s-.24-1.57-.73-2.03c-.49-.46-1.11-.69-1.88-.69Z"/>
    <path fill="currentColor" d="M20.36,35.73c-.72,0-1.35,.24-1.89,.73s-.81,1.19-.81,2.1,.27,1.61,.81,2.1,1.17,.73,1.89,.73,1.35-.24,1.89-.73c.54-.48,.8-1.18,.8-2.1s-.27-1.62-.8-2.1c-.54-.49-1.17-.73-1.89-.73Z"/>
  </g>
</svg>